<mxfile host="drawio-plugin" modified="2022-09-14T07:14:35.584Z" agent="5.0 (Windows NT 6.2; Win64; x64) AppleWebKit/537.36 (KHTML, like Gecko) Chrome/98.0.4758.102 Safari/537.36" etag="unr6a23ViXgDu3SuEtLA" version="15.5.4" type="embed"><diagram id="C5RBs43oDa-KdzZeNtuy" name="Page-1"><mxGraphModel dx="2247" dy="764" grid="1" gridSize="10" guides="1" tooltips="1" connect="1" arrows="1" fold="1" page="1" pageScale="1" pageWidth="1169" pageHeight="827" background="#F4F1DE" math="0" shadow="0"><root><mxCell id="WIyWlLk6GJQsqaUBKTNV-0"/><mxCell id="WIyWlLk6GJQsqaUBKTNV-1" parent="WIyWlLk6GJQsqaUBKTNV-0"/><mxCell id="WIyWlLk6GJQsqaUBKTNV-2" value="" style="rounded=0;html=1;jettySize=auto;orthogonalLoop=1;fontSize=11;endArrow=block;endFill=0;endSize=8;strokeWidth=1;shadow=0;labelBackgroundColor=none;edgeStyle=orthogonalEdgeStyle;strokeColor=#E07A5F;fontColor=#393C56;" parent="WIyWlLk6GJQsqaUBKTNV-1" source="WIyWlLk6GJQsqaUBKTNV-3" target="WIyWlLk6GJQsqaUBKTNV-6" edge="1"><mxGeometry relative="1" as="geometry"/></mxCell><mxCell id="xuSdyTLcjYyy7Lvfnghe-105" style="edgeStyle=orthogonalEdgeStyle;rounded=0;orthogonalLoop=1;jettySize=auto;html=1;exitX=1;exitY=0.5;exitDx=0;exitDy=0;entryX=1;entryY=0.5;entryDx=0;entryDy=0;strokeColor=#E07A5F;fontColor=#393C56;labelBackgroundColor=#F4F1DE;" parent="WIyWlLk6GJQsqaUBKTNV-1" source="WIyWlLk6GJQsqaUBKTNV-3" target="xuSdyTLcjYyy7Lvfnghe-106" edge="1"><mxGeometry relative="1" as="geometry"><Array as="points"><mxPoint x="1750" y="100"/><mxPoint x="1750" y="730"/></Array></mxGeometry></mxCell><mxCell id="xuSdyTLcjYyy7Lvfnghe-109" style="edgeStyle=orthogonalEdgeStyle;rounded=0;orthogonalLoop=1;jettySize=auto;html=1;exitX=0;exitY=0.5;exitDx=0;exitDy=0;entryX=0.5;entryY=0;entryDx=0;entryDy=0;strokeColor=#E07A5F;fontColor=#393C56;labelBackgroundColor=#F4F1DE;" parent="WIyWlLk6GJQsqaUBKTNV-1" source="WIyWlLk6GJQsqaUBKTNV-3" target="xuSdyTLcjYyy7Lvfnghe-108" edge="1"><mxGeometry relative="1" as="geometry"/></mxCell><mxCell id="WIyWlLk6GJQsqaUBKTNV-3" value="Input Domain" style="rounded=1;whiteSpace=wrap;html=1;fontSize=12;glass=0;strokeWidth=1;shadow=0;fillColor=#F2CC8F;strokeColor=#E07A5F;fontColor=#393C56;" parent="WIyWlLk6GJQsqaUBKTNV-1" vertex="1"><mxGeometry x="160" y="80" width="120" height="40" as="geometry"/></mxCell><mxCell id="WIyWlLk6GJQsqaUBKTNV-5" value="Yes / No" style="edgeStyle=orthogonalEdgeStyle;rounded=0;html=1;jettySize=auto;orthogonalLoop=1;fontSize=11;endArrow=block;endFill=0;endSize=8;strokeWidth=1;shadow=0;labelBackgroundColor=none;strokeColor=#E07A5F;fontColor=#393C56;" parent="WIyWlLk6GJQsqaUBKTNV-1" source="WIyWlLk6GJQsqaUBKTNV-6" target="WIyWlLk6GJQsqaUBKTNV-7" edge="1"><mxGeometry x="-0.2" y="10" relative="1" as="geometry"><mxPoint as="offset"/></mxGeometry></mxCell><mxCell id="WIyWlLk6GJQsqaUBKTNV-6" value="Domain Valid?" style="rhombus;whiteSpace=wrap;html=1;shadow=0;fontFamily=Helvetica;fontSize=12;align=center;strokeWidth=1;spacing=6;spacingTop=-4;fillColor=#F2CC8F;strokeColor=#E07A5F;fontColor=#393C56;" parent="WIyWlLk6GJQsqaUBKTNV-1" vertex="1"><mxGeometry x="170" y="170" width="100" height="80" as="geometry"/></mxCell><mxCell id="xuSdyTLcjYyy7Lvfnghe-0" style="edgeStyle=orthogonalEdgeStyle;rounded=0;orthogonalLoop=1;jettySize=auto;html=1;exitX=0.5;exitY=1;exitDx=0;exitDy=0;entryX=1;entryY=0.5;entryDx=0;entryDy=0;strokeColor=#E07A5F;fontColor=#393C56;labelBackgroundColor=#F4F1DE;" parent="WIyWlLk6GJQsqaUBKTNV-1" source="WIyWlLk6GJQsqaUBKTNV-7" target="WIyWlLk6GJQsqaUBKTNV-10" edge="1"><mxGeometry relative="1" as="geometry"/></mxCell><mxCell id="WIyWlLk6GJQsqaUBKTNV-7" value="parse_raw_domain" style="rounded=1;whiteSpace=wrap;html=1;fontSize=12;glass=0;strokeWidth=1;shadow=0;fillColor=#F2CC8F;strokeColor=#E07A5F;fontColor=#393C56;" parent="WIyWlLk6GJQsqaUBKTNV-1" vertex="1"><mxGeometry x="320" y="190" width="120" height="40" as="geometry"/></mxCell><mxCell id="xuSdyTLcjYyy7Lvfnghe-17" style="edgeStyle=orthogonalEdgeStyle;rounded=0;orthogonalLoop=1;jettySize=auto;html=1;exitX=0.5;exitY=1;exitDx=0;exitDy=0;entryX=0.5;entryY=0;entryDx=0;entryDy=0;strokeColor=#E07A5F;fontColor=#393C56;labelBackgroundColor=#F4F1DE;" parent="WIyWlLk6GJQsqaUBKTNV-1" source="WIyWlLk6GJQsqaUBKTNV-10" target="xuSdyTLcjYyy7Lvfnghe-2" edge="1"><mxGeometry relative="1" as="geometry"><mxPoint x="-900" y="420" as="targetPoint"/><Array as="points"><mxPoint x="-900" y="370"/></Array></mxGeometry></mxCell><mxCell id="WIyWlLk6GJQsqaUBKTNV-10" value="Get DNS Records" style="rhombus;whiteSpace=wrap;html=1;shadow=0;fontFamily=Helvetica;fontSize=12;align=center;strokeWidth=1;spacing=6;spacingTop=-4;fillColor=#F2CC8F;strokeColor=#E07A5F;fontColor=#393C56;" parent="WIyWlLk6GJQsqaUBKTNV-1" vertex="1"><mxGeometry x="170" y="290" width="100" height="80" as="geometry"/></mxCell><mxCell id="xuSdyTLcjYyy7Lvfnghe-100" style="edgeStyle=orthogonalEdgeStyle;rounded=0;orthogonalLoop=1;jettySize=auto;html=1;exitX=0.5;exitY=1;exitDx=0;exitDy=0;entryX=0.5;entryY=0;entryDx=0;entryDy=0;strokeColor=#E07A5F;fontColor=#393C56;labelBackgroundColor=#F4F1DE;" parent="WIyWlLk6GJQsqaUBKTNV-1" source="WIyWlLk6GJQsqaUBKTNV-11" target="xuSdyTLcjYyy7Lvfnghe-34" edge="1"><mxGeometry relative="1" as="geometry"/></mxCell><mxCell id="WIyWlLk6GJQsqaUBKTNV-11" value="WWW" style="rounded=1;whiteSpace=wrap;html=1;fontSize=12;glass=0;strokeWidth=1;shadow=0;fillColor=#F2CC8F;strokeColor=#E07A5F;fontColor=#393C56;" parent="WIyWlLk6GJQsqaUBKTNV-1" vertex="1"><mxGeometry x="160" y="430" width="120" height="40" as="geometry"/></mxCell><mxCell id="xuSdyTLcjYyy7Lvfnghe-1" value="Repair Lamp" style="rounded=1;whiteSpace=wrap;html=1;fontSize=12;glass=0;strokeWidth=1;shadow=0;fillColor=#F2CC8F;strokeColor=#E07A5F;fontColor=#393C56;" parent="WIyWlLk6GJQsqaUBKTNV-1" vertex="1"><mxGeometry x="320" y="430" width="120" height="40" as="geometry"/></mxCell><mxCell id="xuSdyTLcjYyy7Lvfnghe-2" value="SOA" style="rounded=1;whiteSpace=wrap;html=1;fontSize=12;glass=0;strokeWidth=1;shadow=0;fillColor=#F2CC8F;strokeColor=#E07A5F;fontColor=#393C56;" parent="WIyWlLk6GJQsqaUBKTNV-1" vertex="1"><mxGeometry x="-960" y="430" width="120" height="40" as="geometry"/></mxCell><mxCell id="xuSdyTLcjYyy7Lvfnghe-3" value="MX" style="rounded=1;whiteSpace=wrap;html=1;fontSize=12;glass=0;strokeWidth=1;shadow=0;fillColor=#F2CC8F;strokeColor=#E07A5F;fontColor=#393C56;" parent="WIyWlLk6GJQsqaUBKTNV-1" vertex="1"><mxGeometry x="-160" y="430" width="120" height="40" as="geometry"/></mxCell><mxCell id="xuSdyTLcjYyy7Lvfnghe-4" value="NS" style="rounded=1;whiteSpace=wrap;html=1;fontSize=12;glass=0;strokeWidth=1;shadow=0;fillColor=#F2CC8F;strokeColor=#E07A5F;fontColor=#393C56;" parent="WIyWlLk6GJQsqaUBKTNV-1" vertex="1"><mxGeometry x="480" y="430" width="120" height="40" as="geometry"/></mxCell><mxCell id="xuSdyTLcjYyy7Lvfnghe-5" value="AAAA" style="rounded=1;whiteSpace=wrap;html=1;fontSize=12;glass=0;strokeWidth=1;shadow=0;fillColor=#F2CC8F;strokeColor=#E07A5F;fontColor=#393C56;" parent="WIyWlLk6GJQsqaUBKTNV-1" vertex="1"><mxGeometry x="-320" y="430" width="120" height="40" as="geometry"/></mxCell><mxCell id="xuSdyTLcjYyy7Lvfnghe-6" value="TXT" style="rounded=1;whiteSpace=wrap;html=1;fontSize=12;glass=0;strokeWidth=1;shadow=0;fillColor=#F2CC8F;strokeColor=#E07A5F;fontColor=#393C56;" parent="WIyWlLk6GJQsqaUBKTNV-1" vertex="1"><mxGeometry x="640" y="430" width="120" height="40" as="geometry"/></mxCell><mxCell id="xuSdyTLcjYyy7Lvfnghe-7" value="A" style="rounded=1;whiteSpace=wrap;html=1;fontSize=12;glass=0;strokeWidth=1;shadow=0;fillColor=#F2CC8F;strokeColor=#E07A5F;fontColor=#393C56;" parent="WIyWlLk6GJQsqaUBKTNV-1" vertex="1"><mxGeometry x="-480" y="430" width="120" height="40" as="geometry"/></mxCell><mxCell id="xuSdyTLcjYyy7Lvfnghe-8" value="IPv4/IPv6" style="rounded=1;whiteSpace=wrap;html=1;fontSize=12;glass=0;strokeWidth=1;shadow=0;fillColor=#F2CC8F;strokeColor=#E07A5F;fontColor=#393C56;" parent="WIyWlLk6GJQsqaUBKTNV-1" vertex="1"><mxGeometry x="800" y="430" width="120" height="40" as="geometry"/></mxCell><mxCell id="xuSdyTLcjYyy7Lvfnghe-9" value="ASN" style="rounded=1;whiteSpace=wrap;html=1;fontSize=12;glass=0;strokeWidth=1;shadow=0;fillColor=#F2CC8F;strokeColor=#E07A5F;fontColor=#393C56;" parent="WIyWlLk6GJQsqaUBKTNV-1" vertex="1"><mxGeometry x="960" y="430" width="120" height="40" as="geometry"/></mxCell><mxCell id="xuSdyTLcjYyy7Lvfnghe-10" value="XFR" style="rounded=1;whiteSpace=wrap;html=1;fontSize=12;glass=0;strokeWidth=1;shadow=0;fillColor=#F2CC8F;strokeColor=#E07A5F;fontColor=#393C56;" parent="WIyWlLk6GJQsqaUBKTNV-1" vertex="1"><mxGeometry x="1120" y="430" width="120" height="40" as="geometry"/></mxCell><mxCell id="xuSdyTLcjYyy7Lvfnghe-11" value="PTR" style="rounded=1;whiteSpace=wrap;html=1;fontSize=12;glass=0;strokeWidth=1;shadow=0;fillColor=#F2CC8F;strokeColor=#E07A5F;fontColor=#393C56;" parent="WIyWlLk6GJQsqaUBKTNV-1" vertex="1"><mxGeometry x="1280" y="430" width="120" height="40" as="geometry"/></mxCell><mxCell id="xuSdyTLcjYyy7Lvfnghe-12" value="Registrar" style="rounded=1;whiteSpace=wrap;html=1;fontSize=12;glass=0;strokeWidth=1;shadow=0;fillColor=#F2CC8F;strokeColor=#E07A5F;fontColor=#393C56;" parent="WIyWlLk6GJQsqaUBKTNV-1" vertex="1"><mxGeometry x="1440" y="430" width="120" height="40" as="geometry"/></mxCell><mxCell id="xuSdyTLcjYyy7Lvfnghe-13" value="Expiration Date" style="rounded=1;whiteSpace=wrap;html=1;fontSize=12;glass=0;strokeWidth=1;shadow=0;fillColor=#F2CC8F;strokeColor=#E07A5F;fontColor=#393C56;" parent="WIyWlLk6GJQsqaUBKTNV-1" vertex="1"><mxGeometry x="1600" y="430" width="120" height="40" as="geometry"/></mxCell><mxCell id="xuSdyTLcjYyy7Lvfnghe-14" value="Emial Exchange Service&lt;span style=&quot;color: rgba(0, 0, 0, 0); font-family: monospace; font-size: 0px; text-align: start;&quot;&gt;%3CmxGraphModel%3E%3Croot%3E%3CmxCell%20id%3D%220%22%2F%3E%3CmxCell%20id%3D%221%22%20parent%3D%220%22%2F%3E%3CmxCell%20id%3D%222%22%20value%3D%22A%22%20style%3D%22rounded%3D1%3BwhiteSpace%3Dwrap%3Bhtml%3D1%3BfontSize%3D12%3Bglass%3D0%3BstrokeWidth%3D1%3Bshadow%3D0%3B%22%20vertex%3D%221%22%20parent%3D%221%22%3E%3CmxGeometry%20x%3D%22-480%22%20y%3D%22430%22%20width%3D%22120%22%20height%3D%2240%22%20as%3D%22geometry%22%2F%3E%3C%2FmxCell%3E%3C%2Froot%3E%3C%2FmxGraphModel%3E&lt;/span&gt;" style="rounded=1;whiteSpace=wrap;html=1;fontSize=12;glass=0;strokeWidth=1;shadow=0;fillColor=#F2CC8F;strokeColor=#E07A5F;fontColor=#393C56;" parent="WIyWlLk6GJQsqaUBKTNV-1" vertex="1"><mxGeometry x="-640" y="430" width="120" height="40" as="geometry"/></mxCell><mxCell id="xuSdyTLcjYyy7Lvfnghe-15" value="Has HTTPS" style="rounded=1;whiteSpace=wrap;html=1;fontSize=12;glass=0;strokeWidth=1;shadow=0;fillColor=#F2CC8F;strokeColor=#E07A5F;fontColor=#393C56;" parent="WIyWlLk6GJQsqaUBKTNV-1" vertex="1"><mxGeometry x="-800" y="430" width="120" height="40" as="geometry"/></mxCell><mxCell id="xuSdyTLcjYyy7Lvfnghe-16" value="is BlackListed" style="rounded=1;whiteSpace=wrap;html=1;fontSize=12;glass=0;strokeWidth=1;shadow=0;fillColor=#F2CC8F;strokeColor=#E07A5F;fontColor=#393C56;" parent="WIyWlLk6GJQsqaUBKTNV-1" vertex="1"><mxGeometry y="430" width="120" height="40" as="geometry"/></mxCell><mxCell id="xuSdyTLcjYyy7Lvfnghe-28" style="edgeStyle=orthogonalEdgeStyle;rounded=0;orthogonalLoop=1;jettySize=auto;html=1;entryX=0.5;entryY=0;entryDx=0;entryDy=0;strokeColor=#E07A5F;fontColor=#393C56;labelBackgroundColor=#F4F1DE;" parent="WIyWlLk6GJQsqaUBKTNV-1" edge="1"><mxGeometry relative="1" as="geometry"><mxPoint x="859.5300000000001" y="430" as="targetPoint"/><mxPoint x="859.5300000000001" y="370" as="sourcePoint"/><Array as="points"><mxPoint x="859.7700000000001" y="400"/><mxPoint x="859.7700000000001" y="400"/></Array></mxGeometry></mxCell><mxCell id="xuSdyTLcjYyy7Lvfnghe-116" style="edgeStyle=orthogonalEdgeStyle;rounded=0;orthogonalLoop=1;jettySize=auto;html=1;entryX=0.5;entryY=0;entryDx=0;entryDy=0;strokeColor=#E07A5F;fontColor=#393C56;labelBackgroundColor=#F4F1DE;" parent="WIyWlLk6GJQsqaUBKTNV-1" source="xuSdyTLcjYyy7Lvfnghe-34" target="xuSdyTLcjYyy7Lvfnghe-35" edge="1"><mxGeometry relative="1" as="geometry"/></mxCell><mxCell id="xuSdyTLcjYyy7Lvfnghe-117" style="edgeStyle=orthogonalEdgeStyle;rounded=0;orthogonalLoop=1;jettySize=auto;html=1;exitX=1;exitY=0.5;exitDx=0;exitDy=0;entryX=0.5;entryY=0;entryDx=0;entryDy=0;strokeColor=#E07A5F;fontColor=#393C56;labelBackgroundColor=#F4F1DE;" parent="WIyWlLk6GJQsqaUBKTNV-1" source="xuSdyTLcjYyy7Lvfnghe-34" target="xuSdyTLcjYyy7Lvfnghe-102" edge="1"><mxGeometry relative="1" as="geometry"/></mxCell><mxCell id="xuSdyTLcjYyy7Lvfnghe-34" value="Output to model" style="rhombus;whiteSpace=wrap;html=1;shadow=0;fontFamily=Helvetica;fontSize=12;align=center;strokeWidth=1;spacing=6;spacingTop=-4;fillColor=#F2CC8F;strokeColor=#E07A5F;fontColor=#393C56;" parent="WIyWlLk6GJQsqaUBKTNV-1" vertex="1"><mxGeometry x="170" y="540" width="100" height="80" as="geometry"/></mxCell><mxCell id="xuSdyTLcjYyy7Lvfnghe-103" style="edgeStyle=orthogonalEdgeStyle;rounded=0;orthogonalLoop=1;jettySize=auto;html=1;exitX=1;exitY=0.5;exitDx=0;exitDy=0;entryX=0;entryY=0.5;entryDx=0;entryDy=0;strokeColor=#E07A5F;fontColor=#393C56;labelBackgroundColor=#F4F1DE;" parent="WIyWlLk6GJQsqaUBKTNV-1" source="xuSdyTLcjYyy7Lvfnghe-35" target="xuSdyTLcjYyy7Lvfnghe-102" edge="1"><mxGeometry relative="1" as="geometry"/></mxCell><mxCell id="xuSdyTLcjYyy7Lvfnghe-35" value="SQLite server" style="rhombus;whiteSpace=wrap;html=1;shadow=0;fontFamily=Helvetica;fontSize=12;align=center;strokeWidth=1;spacing=6;spacingTop=-4;fillColor=#F2CC8F;strokeColor=#E07A5F;fontColor=#393C56;" parent="WIyWlLk6GJQsqaUBKTNV-1" vertex="1"><mxGeometry x="170" y="690" width="100" height="80" as="geometry"/></mxCell><mxCell id="xuSdyTLcjYyy7Lvfnghe-120" style="edgeStyle=orthogonalEdgeStyle;rounded=0;orthogonalLoop=1;jettySize=auto;html=1;entryX=0.5;entryY=0;entryDx=0;entryDy=0;strokeColor=#E07A5F;fontColor=#393C56;labelBackgroundColor=#F4F1DE;" parent="WIyWlLk6GJQsqaUBKTNV-1" source="xuSdyTLcjYyy7Lvfnghe-36" target="xuSdyTLcjYyy7Lvfnghe-37" edge="1"><mxGeometry relative="1" as="geometry"/></mxCell><mxCell id="xuSdyTLcjYyy7Lvfnghe-36" value="Django Server" style="rhombus;whiteSpace=wrap;html=1;shadow=0;fontFamily=Helvetica;fontSize=12;align=center;strokeWidth=1;spacing=6;spacingTop=-4;fillColor=#F2CC8F;strokeColor=#E07A5F;fontColor=#393C56;" parent="WIyWlLk6GJQsqaUBKTNV-1" vertex="1"><mxGeometry x="170" y="827" width="100" height="80" as="geometry"/></mxCell><mxCell id="xuSdyTLcjYyy7Lvfnghe-37" value="Frontend Tool" style="rhombus;whiteSpace=wrap;html=1;shadow=0;fontFamily=Helvetica;fontSize=12;align=center;strokeWidth=1;spacing=6;spacingTop=-4;fillColor=#F2CC8F;strokeColor=#E07A5F;fontColor=#393C56;" parent="WIyWlLk6GJQsqaUBKTNV-1" vertex="1"><mxGeometry x="170" y="980" width="100" height="80" as="geometry"/></mxCell><mxCell id="xuSdyTLcjYyy7Lvfnghe-40" value="" style="group;fontColor=#393C56;" parent="WIyWlLk6GJQsqaUBKTNV-1" vertex="1" connectable="0"><mxGeometry x="-740" y="370" width="2400" height="30" as="geometry"/></mxCell><mxCell id="xuSdyTLcjYyy7Lvfnghe-30" style="edgeStyle=orthogonalEdgeStyle;rounded=0;orthogonalLoop=1;jettySize=auto;html=1;entryX=0.5;entryY=0;entryDx=0;entryDy=0;strokeColor=#E07A5F;fontColor=#393C56;labelBackgroundColor=#F4F1DE;" parent="xuSdyTLcjYyy7Lvfnghe-40" edge="1"><mxGeometry relative="1" as="geometry"><mxPoint x="1759.5800000000002" y="60" as="targetPoint"/><mxPoint x="1759.5800000000002" as="sourcePoint"/><Array as="points"><mxPoint x="1759.8200000000002" y="30"/><mxPoint x="1759.8200000000002" y="30"/></Array></mxGeometry></mxCell><mxCell id="xuSdyTLcjYyy7Lvfnghe-31" style="edgeStyle=orthogonalEdgeStyle;rounded=0;orthogonalLoop=1;jettySize=auto;html=1;entryX=0.5;entryY=0;entryDx=0;entryDy=0;strokeColor=#E07A5F;fontColor=#393C56;labelBackgroundColor=#F4F1DE;" parent="xuSdyTLcjYyy7Lvfnghe-40" edge="1"><mxGeometry relative="1" as="geometry"><mxPoint x="1919.5800000000002" y="60" as="targetPoint"/><mxPoint x="1919.5800000000002" as="sourcePoint"/><Array as="points"><mxPoint x="1919.8200000000002" y="30"/><mxPoint x="1919.8200000000002" y="30"/></Array></mxGeometry></mxCell><mxCell id="xuSdyTLcjYyy7Lvfnghe-32" style="edgeStyle=orthogonalEdgeStyle;rounded=0;orthogonalLoop=1;jettySize=auto;html=1;entryX=0.5;entryY=0;entryDx=0;entryDy=0;strokeColor=#E07A5F;fontColor=#393C56;labelBackgroundColor=#F4F1DE;" parent="xuSdyTLcjYyy7Lvfnghe-40" edge="1"><mxGeometry relative="1" as="geometry"><mxPoint x="2079.58" y="60" as="targetPoint"/><mxPoint x="2079.58" as="sourcePoint"/><Array as="points"><mxPoint x="2079.82" y="30"/><mxPoint x="2079.82" y="30"/></Array></mxGeometry></mxCell><mxCell id="xuSdyTLcjYyy7Lvfnghe-33" style="edgeStyle=orthogonalEdgeStyle;rounded=0;orthogonalLoop=1;jettySize=auto;html=1;entryX=0.5;entryY=0;entryDx=0;entryDy=0;strokeColor=#E07A5F;fontColor=#393C56;labelBackgroundColor=#F4F1DE;" parent="xuSdyTLcjYyy7Lvfnghe-40" edge="1"><mxGeometry relative="1" as="geometry"><mxPoint x="2239.58" y="60" as="targetPoint"/><mxPoint x="2239.58" as="sourcePoint"/><Array as="points"><mxPoint x="2239.82" y="30"/><mxPoint x="2239.82" y="30"/></Array></mxGeometry></mxCell><mxCell id="xuSdyTLcjYyy7Lvfnghe-39" value="" style="group;fontColor=#393C56;" parent="xuSdyTLcjYyy7Lvfnghe-40" vertex="1" connectable="0"><mxGeometry width="2400" height="30" as="geometry"/></mxCell><mxCell id="xuSdyTLcjYyy7Lvfnghe-18" style="edgeStyle=orthogonalEdgeStyle;rounded=0;orthogonalLoop=1;jettySize=auto;html=1;entryX=0.5;entryY=0;entryDx=0;entryDy=0;strokeColor=#E07A5F;fontColor=#393C56;labelBackgroundColor=#F4F1DE;" parent="xuSdyTLcjYyy7Lvfnghe-39" target="xuSdyTLcjYyy7Lvfnghe-15" edge="1"><mxGeometry relative="1" as="geometry"><mxPoint x="-0.142857142856883" as="targetPoint"/><mxPoint as="sourcePoint"/></mxGeometry></mxCell><mxCell id="xuSdyTLcjYyy7Lvfnghe-19" style="edgeStyle=orthogonalEdgeStyle;rounded=0;orthogonalLoop=1;jettySize=auto;html=1;entryX=0.5;entryY=0;entryDx=0;entryDy=0;strokeColor=#E07A5F;fontColor=#393C56;labelBackgroundColor=#F4F1DE;" parent="xuSdyTLcjYyy7Lvfnghe-39" edge="1"><mxGeometry relative="1" as="geometry"><mxPoint x="159.76" y="60" as="targetPoint"/><mxPoint x="159.76" as="sourcePoint"/><Array as="points"><mxPoint x="159.76" y="20"/><mxPoint x="159.76" y="20"/></Array></mxGeometry></mxCell><mxCell id="xuSdyTLcjYyy7Lvfnghe-20" style="edgeStyle=orthogonalEdgeStyle;rounded=0;orthogonalLoop=1;jettySize=auto;html=1;entryX=0.5;entryY=0;entryDx=0;entryDy=0;strokeColor=#E07A5F;fontColor=#393C56;labelBackgroundColor=#F4F1DE;" parent="xuSdyTLcjYyy7Lvfnghe-39" edge="1"><mxGeometry relative="1" as="geometry"><mxPoint x="319.76" y="60" as="targetPoint"/><mxPoint x="319.76" as="sourcePoint"/><Array as="points"><mxPoint x="319.76" y="20"/><mxPoint x="319.76" y="20"/></Array></mxGeometry></mxCell><mxCell id="xuSdyTLcjYyy7Lvfnghe-21" style="edgeStyle=orthogonalEdgeStyle;rounded=0;orthogonalLoop=1;jettySize=auto;html=1;entryX=0.5;entryY=0;entryDx=0;entryDy=0;strokeColor=#E07A5F;fontColor=#393C56;labelBackgroundColor=#F4F1DE;" parent="xuSdyTLcjYyy7Lvfnghe-39" edge="1"><mxGeometry relative="1" as="geometry"><mxPoint x="479.76" y="60" as="targetPoint"/><mxPoint x="479.76" as="sourcePoint"/><Array as="points"><mxPoint x="479.76" y="20"/><mxPoint x="479.76" y="20"/></Array></mxGeometry></mxCell><mxCell id="xuSdyTLcjYyy7Lvfnghe-24" style="edgeStyle=orthogonalEdgeStyle;rounded=0;orthogonalLoop=1;jettySize=auto;html=1;entryX=0.5;entryY=0;entryDx=0;entryDy=0;strokeColor=#E07A5F;fontColor=#393C56;labelBackgroundColor=#F4F1DE;" parent="xuSdyTLcjYyy7Lvfnghe-39" edge="1"><mxGeometry relative="1" as="geometry"><mxPoint x="1279.6700000000003" y="60" as="targetPoint"/><mxPoint x="1279.6700000000003" as="sourcePoint"/><Array as="points"><mxPoint x="1279.91" y="30"/><mxPoint x="1279.91" y="30"/></Array></mxGeometry></mxCell><mxCell id="xuSdyTLcjYyy7Lvfnghe-26" style="edgeStyle=orthogonalEdgeStyle;rounded=0;orthogonalLoop=1;jettySize=auto;html=1;entryX=0.5;entryY=0;entryDx=0;entryDy=0;strokeColor=#E07A5F;fontColor=#393C56;labelBackgroundColor=#F4F1DE;" parent="xuSdyTLcjYyy7Lvfnghe-39" edge="1"><mxGeometry relative="1" as="geometry"><mxPoint x="1119.67" y="60" as="targetPoint"/><mxPoint x="1119.67" as="sourcePoint"/><Array as="points"><mxPoint x="1120" y="20"/><mxPoint x="1120" y="20"/></Array></mxGeometry></mxCell><mxCell id="xuSdyTLcjYyy7Lvfnghe-27" style="edgeStyle=orthogonalEdgeStyle;rounded=0;orthogonalLoop=1;jettySize=auto;html=1;entryX=0.5;entryY=0;entryDx=0;entryDy=0;strokeColor=#E07A5F;fontColor=#393C56;labelBackgroundColor=#F4F1DE;" parent="xuSdyTLcjYyy7Lvfnghe-39" edge="1"><mxGeometry relative="1" as="geometry"><mxPoint x="1439.67" y="60" as="targetPoint"/><mxPoint x="1439.67" as="sourcePoint"/><Array as="points"><mxPoint x="1439.91" y="30"/><mxPoint x="1439.91" y="30"/></Array></mxGeometry></mxCell><mxCell id="xuSdyTLcjYyy7Lvfnghe-29" style="edgeStyle=orthogonalEdgeStyle;rounded=0;orthogonalLoop=1;jettySize=auto;html=1;entryX=0.5;entryY=0;entryDx=0;entryDy=0;strokeColor=#E07A5F;fontColor=#393C56;labelBackgroundColor=#F4F1DE;" parent="xuSdyTLcjYyy7Lvfnghe-39" edge="1"><mxGeometry relative="1" as="geometry"><mxPoint x="1599.5300000000002" y="60" as="targetPoint"/><mxPoint x="1599.5300000000002" as="sourcePoint"/><Array as="points"><mxPoint x="1599.77" y="30"/><mxPoint x="1599.77" y="30"/></Array></mxGeometry></mxCell><mxCell id="xuSdyTLcjYyy7Lvfnghe-38" value="" style="group;fontColor=#393C56;" parent="xuSdyTLcjYyy7Lvfnghe-39" vertex="1" connectable="0"><mxGeometry x="640" width="1760" height="30" as="geometry"/></mxCell><mxCell id="WIyWlLk6GJQsqaUBKTNV-8" value="" style="rounded=0;html=1;jettySize=auto;orthogonalLoop=1;fontSize=11;endArrow=block;endFill=0;endSize=8;strokeWidth=1;shadow=0;labelBackgroundColor=none;edgeStyle=orthogonalEdgeStyle;strokeColor=#E07A5F;fontColor=#393C56;" parent="xuSdyTLcjYyy7Lvfnghe-38" source="WIyWlLk6GJQsqaUBKTNV-10" target="WIyWlLk6GJQsqaUBKTNV-11" edge="1"><mxGeometry x="0.3333" y="20" relative="1" as="geometry"><mxPoint as="offset"/></mxGeometry></mxCell><mxCell id="xuSdyTLcjYyy7Lvfnghe-25" style="edgeStyle=orthogonalEdgeStyle;rounded=0;orthogonalLoop=1;jettySize=auto;html=1;exitX=0.5;exitY=1;exitDx=0;exitDy=0;entryX=0.5;entryY=0;entryDx=0;entryDy=0;strokeColor=#E07A5F;fontColor=#393C56;labelBackgroundColor=#F4F1DE;" parent="xuSdyTLcjYyy7Lvfnghe-38" source="WIyWlLk6GJQsqaUBKTNV-10" target="xuSdyTLcjYyy7Lvfnghe-13" edge="1"><mxGeometry relative="1" as="geometry"><Array as="points"><mxPoint x="1760"/></Array></mxGeometry></mxCell><mxCell id="xuSdyTLcjYyy7Lvfnghe-22" style="edgeStyle=orthogonalEdgeStyle;rounded=0;orthogonalLoop=1;jettySize=auto;html=1;entryX=0.5;entryY=0;entryDx=0;entryDy=0;strokeColor=#E07A5F;fontColor=#393C56;labelBackgroundColor=#F4F1DE;" parent="xuSdyTLcjYyy7Lvfnghe-38" edge="1"><mxGeometry relative="1" as="geometry"><mxPoint x="-0.23999999999978172" y="60" as="targetPoint"/><mxPoint x="-0.23999999999978172" as="sourcePoint"/><Array as="points"><mxPoint y="30"/><mxPoint y="30"/></Array></mxGeometry></mxCell><mxCell id="xuSdyTLcjYyy7Lvfnghe-23" style="edgeStyle=orthogonalEdgeStyle;rounded=0;orthogonalLoop=1;jettySize=auto;html=1;entryX=0.5;entryY=0;entryDx=0;entryDy=0;strokeColor=#E07A5F;fontColor=#393C56;labelBackgroundColor=#F4F1DE;" parent="xuSdyTLcjYyy7Lvfnghe-38" edge="1"><mxGeometry relative="1" as="geometry"><mxPoint x="159.76000000000022" y="60" as="targetPoint"/><mxPoint x="159.76000000000022" as="sourcePoint"/><Array as="points"><mxPoint x="160" y="30"/><mxPoint x="160" y="30"/></Array></mxGeometry></mxCell><mxCell id="xuSdyTLcjYyy7Lvfnghe-104" style="edgeStyle=orthogonalEdgeStyle;rounded=0;orthogonalLoop=1;jettySize=auto;html=1;exitX=0.5;exitY=1;exitDx=0;exitDy=0;entryX=1;entryY=0.5;entryDx=0;entryDy=0;strokeColor=#E07A5F;fontColor=#393C56;labelBackgroundColor=#F4F1DE;" parent="WIyWlLk6GJQsqaUBKTNV-1" source="xuSdyTLcjYyy7Lvfnghe-102" target="xuSdyTLcjYyy7Lvfnghe-36" edge="1"><mxGeometry relative="1" as="geometry"/></mxCell><mxCell id="xuSdyTLcjYyy7Lvfnghe-102" value="Redis Server" style="rounded=1;whiteSpace=wrap;html=1;fontSize=12;glass=0;strokeWidth=1;shadow=0;fillColor=#F2CC8F;strokeColor=#E07A5F;fontColor=#393C56;" parent="WIyWlLk6GJQsqaUBKTNV-1" vertex="1"><mxGeometry x="320" y="710" width="120" height="40" as="geometry"/></mxCell><mxCell id="xuSdyTLcjYyy7Lvfnghe-107" style="edgeStyle=orthogonalEdgeStyle;rounded=0;orthogonalLoop=1;jettySize=auto;html=1;exitX=0;exitY=0.5;exitDx=0;exitDy=0;entryX=1;entryY=0.5;entryDx=0;entryDy=0;strokeColor=#E07A5F;fontColor=#393C56;labelBackgroundColor=#F4F1DE;" parent="WIyWlLk6GJQsqaUBKTNV-1" source="xuSdyTLcjYyy7Lvfnghe-106" target="xuSdyTLcjYyy7Lvfnghe-102" edge="1"><mxGeometry relative="1" as="geometry"/></mxCell><mxCell id="xuSdyTLcjYyy7Lvfnghe-106" value="Is cached?" style="rounded=1;whiteSpace=wrap;html=1;fontSize=12;glass=0;strokeWidth=1;shadow=0;fillColor=#F2CC8F;strokeColor=#E07A5F;fontColor=#393C56;" parent="WIyWlLk6GJQsqaUBKTNV-1" vertex="1"><mxGeometry x="1000" y="710" width="120" height="40" as="geometry"/></mxCell><mxCell id="xuSdyTLcjYyy7Lvfnghe-110" style="edgeStyle=orthogonalEdgeStyle;rounded=0;orthogonalLoop=1;jettySize=auto;html=1;exitX=0.5;exitY=1;exitDx=0;exitDy=0;entryX=0;entryY=0.5;entryDx=0;entryDy=0;strokeColor=#E07A5F;fontColor=#393C56;labelBackgroundColor=#F4F1DE;" parent="WIyWlLk6GJQsqaUBKTNV-1" source="xuSdyTLcjYyy7Lvfnghe-108" target="xuSdyTLcjYyy7Lvfnghe-2" edge="1"><mxGeometry relative="1" as="geometry"><Array as="points"><mxPoint x="-1120" y="450"/></Array></mxGeometry></mxCell><mxCell id="xuSdyTLcjYyy7Lvfnghe-114" style="edgeStyle=orthogonalEdgeStyle;rounded=0;orthogonalLoop=1;jettySize=auto;html=1;exitX=1;exitY=0.5;exitDx=0;exitDy=0;entryX=0;entryY=0.5;entryDx=0;entryDy=0;strokeColor=#E07A5F;fontColor=#393C56;labelBackgroundColor=#F4F1DE;" parent="WIyWlLk6GJQsqaUBKTNV-1" source="xuSdyTLcjYyy7Lvfnghe-108" target="WIyWlLk6GJQsqaUBKTNV-10" edge="1"><mxGeometry relative="1" as="geometry"/></mxCell><mxCell id="xuSdyTLcjYyy7Lvfnghe-108" value="Not Cached but in database" style="rounded=1;whiteSpace=wrap;html=1;fontSize=12;glass=0;strokeWidth=1;shadow=0;flipV=1;fillColor=#F2CC8F;strokeColor=#E07A5F;fontColor=#393C56;" parent="WIyWlLk6GJQsqaUBKTNV-1" vertex="1"><mxGeometry x="-1160" y="310" width="120" height="40" as="geometry"/></mxCell><mxCell id="xuSdyTLcjYyy7Lvfnghe-112" value="Same?" style="text;html=1;align=center;verticalAlign=middle;resizable=0;points=[];autosize=1;strokeColor=none;fillColor=none;fontColor=#393C56;" parent="WIyWlLk6GJQsqaUBKTNV-1" vertex="1"><mxGeometry x="-1080" y="414" width="60" height="30" as="geometry"/></mxCell><mxCell id="xuSdyTLcjYyy7Lvfnghe-115" value="Not Same" style="text;html=1;align=center;verticalAlign=middle;resizable=0;points=[];autosize=1;strokeColor=none;fillColor=none;fontColor=#393C56;" parent="WIyWlLk6GJQsqaUBKTNV-1" vertex="1"><mxGeometry x="-450" y="305" width="80" height="30" as="geometry"/></mxCell><mxCell id="xuSdyTLcjYyy7Lvfnghe-118" value="Valid Time?" style="text;html=1;align=center;verticalAlign=middle;resizable=0;points=[];autosize=1;strokeColor=none;fillColor=none;fontColor=#393C56;" parent="WIyWlLk6GJQsqaUBKTNV-1" vertex="1"><mxGeometry x="375" y="840" width="90" height="30" as="geometry"/></mxCell></root></mxGraphModel></diagram></mxfile>